<svg width="959" height="666" viewBox="0 0 959 666" fill="none" xmlns="http://www.w3.org/2000/svg">
<rect width="959" height="666" fill="white"/>
<path d="M377.839 354H365.359L382.319 309.2H395.119L412.079 354H399.599L396.719 346H380.719L377.839 354ZM383.599 337.68H393.839L388.719 322.64L383.599 337.68Z" fill="#313131"/>
<path d="M442.827 309.2H454.347V341.84C454.347 346.32 453.323 349.584 451.275 351.632C449.27 353.637 446.027 354.64 441.547 354.64H426.827C422.347 354.64 419.083 353.637 417.035 351.632C415.03 349.584 414.027 346.32 414.027 341.84V309.2H425.547V341.84C425.547 344.4 426.827 345.68 429.387 345.68H438.987C441.547 345.68 442.827 344.4 442.827 341.84V309.2Z" fill="#313131"/>
<path d="M483.787 354H472.267V318.16H458.827V309.2H497.227V318.16H483.787V354Z" fill="#313131"/>
<path d="M530.514 321.36C530.514 318.8 529.234 317.52 526.674 317.52H515.794C513.234 317.52 511.954 318.8 511.954 321.36V341.84C511.954 344.4 513.234 345.68 515.794 345.68H526.674C529.234 345.68 530.514 344.4 530.514 341.84V321.36ZM542.034 341.84C542.034 346.32 541.01 349.584 538.962 351.632C536.957 353.637 533.714 354.64 529.234 354.64H513.234C508.754 354.64 505.49 353.637 503.442 351.632C501.437 349.584 500.434 346.32 500.434 341.84V321.36C500.434 316.88 501.437 313.637 503.442 311.632C505.49 309.584 508.754 308.56 513.234 308.56H529.234C533.714 308.56 536.957 309.584 538.962 311.632C541.01 313.637 542.034 316.88 542.034 321.36V341.84Z" fill="#313131"/>
<path d="M548.59 309.2H575.47C579.95 309.2 583.193 310.224 585.198 312.272C587.246 314.277 588.27 317.52 588.27 322V327.76C588.27 331.301 587.673 334.053 586.478 336.016C585.326 337.979 583.47 339.28 580.91 339.92L588.91 354H576.43L569.07 340.56H560.11V354H548.59V309.2ZM576.75 322C576.75 319.44 575.47 318.16 572.91 318.16H560.11V331.6H572.91C575.47 331.6 576.75 330.32 576.75 327.76V322Z" fill="#B82F1D"/>
<path d="M602.652 354H590.172L607.132 309.2H619.932L636.892 354H624.412L621.532 346H605.532L602.652 354ZM608.412 337.68H618.652L613.532 322.64L608.412 337.68Z" fill="#B82F1D"/>
<path d="M629.845 309.2H642.005L652.565 330.96L663.125 309.2H675.285L658.325 342.16V354H646.805V342.16L629.845 309.2Z" fill="#B82F1D"/>
<path fill-rule="evenodd" clip-rule="evenodd" d="M351.471 353.017C353.557 350.931 354.6 347.607 354.6 343.044V322.185C354.6 317.622 353.557 314.319 351.471 312.277C349.429 310.191 346.126 309.148 341.563 309.148H296.75C292.187 309.148 288.862 310.191 286.777 312.277C284.734 314.319 283.713 317.622 283.713 322.185V343.044C283.713 347.607 284.734 350.931 286.777 353.017C288.862 355.059 292.187 356.08 296.75 356.08H314.324V343.374L306.119 339.111V326.036L314.324 320.352V333.71H318.567H319.133H323.377V320.352L331.581 326.036V339.111L323.377 343.374V356.08H341.563C346.126 356.08 349.429 355.059 351.471 353.017Z" fill="#B82F1D"/>
<mask id="path-4-inside-1_108_9" fill="white">
<path d="M326.491 308.129C326.491 306.399 325.862 304.727 324.72 303.427C323.579 302.126 322.003 301.285 320.287 301.06C318.572 300.836 316.833 301.243 315.395 302.206C313.957 303.169 312.918 304.622 312.473 306.294L313.81 306.65C314.169 305.303 315.006 304.132 316.165 303.356C317.324 302.58 318.725 302.252 320.108 302.433C321.491 302.614 322.76 303.291 323.68 304.34C324.6 305.388 325.107 306.735 325.107 308.129H326.491Z"/>
</mask>
<path d="M326.491 308.129C326.491 306.399 325.862 304.727 324.72 303.427C323.579 302.126 322.003 301.285 320.287 301.06C318.572 300.836 316.833 301.243 315.395 302.206C313.957 303.169 312.918 304.622 312.473 306.294L313.81 306.65C314.169 305.303 315.006 304.132 316.165 303.356C317.324 302.58 318.725 302.252 320.108 302.433C321.491 302.614 322.76 303.291 323.68 304.34C324.6 305.388 325.107 306.735 325.107 308.129H326.491Z" stroke="#B82F1D" stroke-width="4" mask="url(#path-4-inside-1_108_9)"/>
</svg>
