<svg width="959" height="666" viewBox="0 0 959 666" fill="none" xmlns="http://www.w3.org/2000/svg">
<rect width="959" height="666" fill="white"/>
<path d="M382.839 358H370.359L387.319 313.2H400.119L417.079 358H404.599L401.719 350H385.719L382.839 358ZM388.599 341.68H398.839L393.719 326.64L388.599 341.68Z" fill="#313131"/>
<path d="M447.827 313.2H459.347V345.84C459.347 350.32 458.323 353.584 456.275 355.632C454.27 357.637 451.027 358.64 446.547 358.64H431.827C427.347 358.64 424.083 357.637 422.035 355.632C420.03 353.584 419.027 350.32 419.027 345.84V313.2H430.547V345.84C430.547 348.4 431.827 349.68 434.387 349.68H443.987C446.547 349.68 447.827 348.4 447.827 345.84V313.2Z" fill="#313131"/>
<path d="M488.787 358H477.267V322.16H463.827V313.2H502.227V322.16H488.787V358Z" fill="#313131"/>
<path d="M535.514 325.36C535.514 322.8 534.234 321.52 531.674 321.52H520.794C518.234 321.52 516.954 322.8 516.954 325.36V345.84C516.954 348.4 518.234 349.68 520.794 349.68H531.674C534.234 349.68 535.514 348.4 535.514 345.84V325.36ZM547.034 345.84C547.034 350.32 546.01 353.584 543.962 355.632C541.957 357.637 538.714 358.64 534.234 358.64H518.234C513.754 358.64 510.49 357.637 508.442 355.632C506.437 353.584 505.434 350.32 505.434 345.84V325.36C505.434 320.88 506.437 317.637 508.442 315.632C510.49 313.584 513.754 312.56 518.234 312.56H534.234C538.714 312.56 541.957 313.584 543.962 315.632C546.01 317.637 547.034 320.88 547.034 325.36V345.84Z" fill="#313131"/>
<path d="M553.59 313.2H580.47C584.95 313.2 588.193 314.224 590.198 316.272C592.246 318.277 593.27 321.52 593.27 326V331.76C593.27 335.301 592.673 338.053 591.478 340.016C590.326 341.979 588.47 343.28 585.91 343.92L593.91 358H581.43L574.07 344.56H565.11V358H553.59V313.2ZM581.75 326C581.75 323.44 580.47 322.16 577.91 322.16H565.11V335.6H577.91C580.47 335.6 581.75 334.32 581.75 331.76V326Z" fill="#B82F1D"/>
<path d="M607.652 358H595.172L612.132 313.2H624.932L641.892 358H629.412L626.532 350H610.532L607.652 358ZM613.412 341.68H623.652L618.532 326.64L613.412 341.68Z" fill="#B82F1D"/>
<path d="M634.845 313.2H647.005L657.565 334.96L668.125 313.2H680.285L663.325 346.16V358H651.805V346.16L634.845 313.2Z" fill="#B82F1D"/>
<path d="M343.443 347.466L329.609 354.66V378L363 358.976V311.978L321.5 288L280 311.978V359.456L312.914 378V354.66L299.08 347.466V325.406L312.914 315.815V338.355H329.609V315.815L343.443 325.406V347.466Z" fill="#B82F1D"/>
</svg>
