<svg width="959" height="666" viewBox="0 0 959 666" fill="none" xmlns="http://www.w3.org/2000/svg">
<rect width="959" height="666" fill="white"/>
<path d="M386.839 354H374.359L391.319 309.2H404.119L421.079 354H408.599L405.719 346H389.719L386.839 354ZM392.599 337.68H402.839L397.719 322.64L392.599 337.68Z" fill="#313131"/>
<path d="M451.827 309.2H463.347V341.84C463.347 346.32 462.323 349.584 460.275 351.632C458.27 353.637 455.027 354.64 450.547 354.64H435.827C431.347 354.64 428.083 353.637 426.035 351.632C424.03 349.584 423.027 346.32 423.027 341.84V309.2H434.547V341.84C434.547 344.4 435.827 345.68 438.387 345.68H447.987C450.547 345.68 451.827 344.4 451.827 341.84V309.2Z" fill="#313131"/>
<path d="M492.787 354H481.267V318.16H467.827V309.2H506.227V318.16H492.787V354Z" fill="#313131"/>
<path d="M539.514 321.36C539.514 318.8 538.234 317.52 535.674 317.52H524.794C522.234 317.52 520.954 318.8 520.954 321.36V341.84C520.954 344.4 522.234 345.68 524.794 345.68H535.674C538.234 345.68 539.514 344.4 539.514 341.84V321.36ZM551.034 341.84C551.034 346.32 550.01 349.584 547.962 351.632C545.957 353.637 542.714 354.64 538.234 354.64H522.234C517.754 354.64 514.49 353.637 512.442 351.632C510.437 349.584 509.434 346.32 509.434 341.84V321.36C509.434 316.88 510.437 313.637 512.442 311.632C514.49 309.584 517.754 308.56 522.234 308.56H538.234C542.714 308.56 545.957 309.584 547.962 311.632C550.01 313.637 551.034 316.88 551.034 321.36V341.84Z" fill="#313131"/>
<path d="M557.59 309.2H584.47C588.95 309.2 592.193 310.224 594.198 312.272C596.246 314.277 597.27 317.52 597.27 322V327.76C597.27 331.301 596.673 334.053 595.478 336.016C594.326 337.979 592.47 339.28 589.91 339.92L597.91 354H585.43L578.07 340.56H569.11V354H557.59V309.2ZM585.75 322C585.75 319.44 584.47 318.16 581.91 318.16H569.11V331.6H581.91C584.47 331.6 585.75 330.32 585.75 327.76V322Z" fill="#B82F1D"/>
<path d="M611.652 354H599.172L616.132 309.2H628.932L645.892 354H633.412L630.532 346H614.532L611.652 354ZM617.412 337.68H627.652L622.532 322.64L617.412 337.68Z" fill="#B82F1D"/>
<path d="M638.845 309.2H651.005L661.565 330.96L672.125 309.2H684.285L667.325 342.16V354H655.805V342.16L638.845 309.2Z" fill="#B82F1D"/>
<rect x="277" y="304" width="88" height="58" fill="#B82F1D"/>
<path d="M314.989 347.256V364H326.011V347.256L336 342.023V325.977L326.011 319V335.395H320.844H320.156H314.989V319L305 325.977V342.023L314.989 347.256Z" fill="white"/>
<mask id="path-5-inside-1_108_16" fill="white">
<path d="M330 304C330 301.815 329.205 299.705 327.764 298.064C326.324 296.422 324.335 295.36 322.168 295.076C320.002 294.793 317.807 295.306 315.992 296.522C314.177 297.738 312.866 299.572 312.303 301.683L313.992 302.133C314.445 300.432 315.501 298.953 316.964 297.974C318.427 296.994 320.196 296.58 321.942 296.808C323.687 297.037 325.29 297.893 326.451 299.216C327.613 300.539 328.253 302.24 328.253 304H330Z"/>
</mask>
<path d="M330 304C330 301.815 329.205 299.705 327.764 298.064C326.324 296.422 324.335 295.36 322.168 295.076C320.002 294.793 317.807 295.306 315.992 296.522C314.177 297.738 312.866 299.572 312.303 301.683L313.992 302.133C314.445 300.432 315.501 298.953 316.964 297.974C318.427 296.994 320.196 296.58 321.942 296.808C323.687 297.037 325.29 297.893 326.451 299.216C327.613 300.539 328.253 302.24 328.253 304H330Z" stroke="#B82F1D" stroke-width="4" mask="url(#path-5-inside-1_108_16)"/>
</svg>
