<svg width="720" height="147" viewBox="0 0 720 147" fill="none" xmlns="http://www.w3.org/2000/svg">
<path d="M22.1712 116H0L30.1301 41H52.8698L83 116H60.8287L55.7123 102.607H27.2876L22.1712 116ZM32.4041 88.6786H50.5959L41.5 63.5L32.4041 88.6786Z" fill="#313131"/>
<path d="M136.714 41H157V96.3098C157 103.901 155.197 109.432 151.59 112.903C148.06 116.3 142.349 118 134.46 118H108.54C100.651 118 94.9032 116.3 91.2968 112.903C87.7662 109.432 86 103.901 86 96.3098V41H106.286V96.3098C106.286 100.648 108.54 102.817 113.048 102.817H129.952C134.46 102.817 136.714 100.648 136.714 96.3098V41Z" fill="#313131"/>
<path d="M208.55 116H188.45V56H165V41H232V56H208.55V116Z" fill="#313131"/>
<path d="M290.785 60.9444C290.785 56.5555 288.538 54.3611 284.046 54.3611H264.954C260.462 54.3611 258.215 56.5555 258.215 60.9444V96.0555C258.215 100.444 260.462 102.639 264.954 102.639H284.046C288.538 102.639 290.785 100.444 290.785 96.0555V60.9444ZM311 96.0555C311 103.736 309.203 109.332 305.609 112.843C302.091 116.28 296.4 118 288.538 118H260.462C252.6 118 246.872 116.28 243.278 112.843C239.76 109.332 238 103.736 238 96.0555V60.9444C238 53.2639 239.76 47.704 243.278 44.2666C246.872 40.7555 252.6 39 260.462 39H288.538C296.4 39 302.091 40.7555 305.609 44.2666C309.203 47.704 311 53.2639 311 60.9444V96.0555Z" fill="#313131"/>
<path d="M497 41H544.333C552.222 41 557.933 42.7143 561.464 46.1428C565.07 49.4994 566.873 54.9286 566.873 62.4286V72.0714C566.873 77.9994 565.822 82.6066 563.718 85.8928C561.689 89.1791 558.421 91.3572 553.913 92.4286L568 116H546.024L533.064 93.5H517.286V116H497V41ZM546.587 62.4286C546.587 58.1428 544.333 56 539.825 56H517.286V78.5H539.825C544.333 78.5 546.587 76.3571 546.587 72.0714V62.4286Z" fill="#313131"/>
<path d="M592.904 116H571L600.767 41H623.233L653 116H631.096L626.041 102.607H597.959L592.904 116ZM603.014 88.6786H620.986L612 63.5L603.014 88.6786Z" fill="#313131"/>
<path d="M640 41H661.409L680 77.4285L698.592 41H720L690.141 96.1786V116H669.859V96.1786L640 41Z" fill="#313131"/>
<path d="M443.305 97.1282L419.472 108.878V147L477 115.927V39.1645L405.5 0L334 39.1645V116.711L390.707 147V108.878L366.874 97.1282V61.0962L390.707 45.4314V82.2456H419.472V45.4314L443.305 61.0962V97.1282Z" fill="#B82F1D"/>
</svg>
