<?xml version="1.0" ?><svg id="Layer_1_1_" style="enable-background:new 0 0 64 64;" version="1.1" viewBox="0 0 64 64" xml:space="preserve" xmlns="http://www.w3.org/2000/svg" xmlns:xlink="http://www.w3.org/1999/xlink"><g><rect height="16" style="fill:#3F3A34;" width="2" x="53" y="6"/><path d="M41,22c0-2.273-1.524-4.364-4.105-5.671L34.908,5.403L30,2.131V3.65l-3.957,4.946l-0.971,7.768   C22.519,17.672,21,19.739,21,22c0,1.832,0.965,3.473,2.555,4.708C22.229,29.598,19,37.321,19,44c0,5.964,2.086,12.814,3.33,16.366   C22.881,61.941,24.377,63,26.053,63C28.229,63,30,61.229,30,59.053v-0.566c0-0.424-0.068-0.844-0.203-1.249   C29.33,55.837,27,48.619,27,44c0-7.312,2.755-13.322,3.612-15.013C30.742,28.99,30.869,29,31,29c0.132,0,0.259-0.01,0.389-0.013   C32.246,30.675,35,36.668,35,44c0,4.619-2.33,11.837-2.797,13.238C32.068,57.642,32,58.062,32,58.486v0.566   C32,61.229,33.771,63,35.947,63c1.675,0,3.172-1.059,3.723-2.634C40.914,56.814,43,49.964,43,44c0-6.679-3.229-14.402-4.555-17.292   C40.035,25.473,41,23.832,41,22z M33.092,6.597l1.913,10.504l0.053,0.584l0.084,0.037l-1.871,2.339   c-0.338-0.395-0.771-0.699-1.27-0.877V5.869L33.092,6.597z M32,22c0,0.551-0.449,1-1,1s-1-0.449-1-1s0.449-1,1-1S32,21.449,32,22z    M27.957,9.404L30,6.851v12.334c-0.42,0.15-0.801,0.38-1.111,0.687l-1.854-3.09L27.957,9.404z M25,44   c0,4.804,2.22,11.832,2.9,13.87c0.066,0.2,0.1,0.407,0.1,0.616v0.566C28,60.126,27.126,61,26.053,61   c-0.827,0-1.564-0.521-1.835-1.295C23.016,56.273,21,49.669,21,44c0-1.617,0.218-3.318,0.553-5H24v-2h-1.994   c0.172-0.679,0.355-1.349,0.551-2H25v-2h-1.793c0.242-0.704,0.486-1.377,0.725-2H26v-2h-1.262c0.201-0.475,0.378-0.875,0.538-1.23   c0.956,0.46,2.038,0.801,3.207,1.006C27.318,31.229,25,36.987,25,44z M23,22c0-1.395,0.968-2.728,2.627-3.679l2.407,4.012   C28.202,23.829,29.46,25,31,25c1.517,0,2.761-1.135,2.959-2.599l2.977-3.721C38.247,19.594,39,20.773,39,22c0,2.71-3.664,5-8,5   S23,24.71,23,22z M37.262,29H36v2h2.068c0.239,0.623,0.483,1.296,0.725,2H37v2h2.443c0.196,0.651,0.379,1.321,0.551,2H38v2h2.447   C40.782,40.682,41,42.383,41,44c0,5.669-2.016,12.273-3.217,15.705C37.512,60.479,36.774,61,35.947,61   C34.874,61,34,60.126,34,59.053v-0.566c0-0.209,0.034-0.417,0.1-0.616C34.78,55.832,37,48.804,37,44   c0-7.013-2.318-12.771-3.483-15.224c1.169-0.205,2.252-0.546,3.207-1.006C36.884,28.125,37.061,28.525,37.262,29z" style="fill:#3F3A34;"/><path d="M59,26V7.314C59,3.833,55.86,1,52,1s-7,2.833-7,6.314V26c-2.206,0-4,1.794-4,4s1.794,4,4,4h4v29h6   V34h4c2.206,0,4-1.794,4-4S61.206,26,59,26z M52,3c2.757,0,5,1.936,5,4.314V26h-2v-2h-2v2h-2V6h-2v20h-2V7.314   C47,4.936,49.243,3,52,3z M53,61h-2V34h2V61z M59,32h-4h-6h-4c-1.103,0-2-0.897-2-2s0.897-2,2-2h1h1h10h1h1c1.103,0,2,0.897,2,2   S60.103,32,59,32z" style="fill:#3F3A34;"/><path d="M16,48.76V19.651c3.1-1.787,5-5.047,5-8.651c0-4.229-2.677-8.019-6.663-9.429l-1.333-0.472L13,10H9   V1.098L7.667,1.569C3.679,2.979,1,6.769,1,11c0,3.604,1.9,6.864,5,8.651V48.76C4.112,50.274,3,52.569,3,55   c0,4.14,3.232,7.64,7.338,7.967C10.556,62.989,10.776,63,11,63s0.444-0.011,0.642-0.031C15.768,62.64,19,59.14,19,55   C19,52.569,17.888,50.274,16,48.76z M11.463,60.977c-0.305,0.03-0.601,0.032-0.946-0.002C7.423,60.728,5,58.104,5,55   c0-1.956,0.962-3.795,2.573-4.92L8,49.781V18.434l-0.554-0.276C4.704,16.793,3,14.05,3,11c0-2.889,1.56-5.52,4-6.931V10   c0,1.103,0.897,2,2,2h4c1.103,0,2-0.897,2-2l0.003-5.929C17.441,5.482,19,8.113,19,11c0,3.05-1.704,5.793-4.446,7.158L14,18.434   v31.347l0.427,0.298C16.038,51.205,17,53.044,17,55C17,58.104,14.577,60.728,11.463,60.977z" style="fill:#3F3A34;"/><path d="M11,51c-2.206,0-4,1.794-4,4s1.794,4,4,4s4-1.794,4-4S13.206,51,11,51z M11,57c-1.103,0-2-0.897-2-2   s0.897-2,2-2s2,0.897,2,2S12.103,57,11,57z" style="fill:#3F3A34;"/></g></svg>