<?xml version="1.0" ?><svg id="Layer_1_1_" style="enable-background:new 0 0 64 64;" version="1.1" viewBox="0 0 64 64" xml:space="preserve" xmlns="http://www.w3.org/2000/svg" xmlns:xlink="http://www.w3.org/1999/xlink"><g><path d="M63,22V12H1v10h15.382l-3,6H4c-1.654,0-3,1.346-3,3v13.528c0,0.463,0.109,0.927,0.316,1.342l2.236,4.472   C4.064,51.365,5.093,52,6.236,52h25.527c1.144,0,2.172-0.635,2.684-1.658l2.236-4.473C36.891,45.455,37,44.991,37,44.528V31   c0-1.654-1.346-3-3-3H21.618l3-6H49v6h-5c-1.654,0-3,1.346-3,3v13.528c0,0.463,0.109,0.927,0.316,1.342l2.236,4.472   C44.064,51.365,45.093,52,46.236,52h11.527c1.144,0,2.172-0.635,2.684-1.658l2.236-4.473C62.891,45.455,63,44.991,63,44.528V31   c0-1.654-1.346-3-3-3h-5v-6H63z M3,14h58v6H3V14z M22.989,45.882l-3.998,2l-4-2l-3.999,2l-3.999-2l-2.747,1.374L3.38,45.524   l3.568-1.429l4.044,2.023l3.999-2l4,2l3.998-2l3.999,2l4.045-2.023l3.586,1.43l-0.868,1.737l-2.764-1.38l-3.999,2L22.989,45.882z    M26.752,50h-7.525l3.762-1.882L26.752,50z M18.755,50h-7.526l3.763-1.882L18.755,50z M30.941,41.905l-3.953,1.977l-3.999-2   l-3.998,2l-4-2l-3.999,2l-3.954-1.977L3,43.522v-1.846l3.948-1.581l4.044,2.023l3.999-2l4,2l3.998-2l3.999,2l4.045-2.023L35,41.677   v1.847L30.941,41.905z M30.941,37.905l-3.953,1.977l-3.999-2l-3.998,2l-4-2l-3.999,2l-3.954-1.977L3,39.522v-1.846l3.948-1.581   l4.044,2.023l3.999-2l4,2l3.998-2l3.999,2l4.045-2.023L35,37.677v1.847L30.941,37.905z M35,35.524l-4.059-1.62l-3.953,1.977   l-3.999-2l-3.998,2l-4-2l-3.999,2l-3.954-1.977L3,35.522v-1.846l3.948-1.581l4.044,2.023l3.999-2l4,2l3.998-2l3.999,2l4.045-2.023   L35,33.677V35.524z M7.229,30h7.526l-3.763,1.882L7.229,30z M26.988,31.882L23.226,30h7.526L26.988,31.882z M18.991,31.882   L15.228,30h7.526L18.991,31.882z M4,30h2.8L3,31.522V31C3,30.449,3.448,30,4,30z M5.342,49.447l-0.201-0.402l1.852-0.927L10.756,50   h-4.52C5.855,50,5.513,49.788,5.342,49.447z M31.764,50h-4.539l3.763-1.882l1.869,0.933l-0.198,0.397   C32.487,49.788,32.145,50,31.764,50z M35,31v0.524L31.18,30H34C34.552,30,35,30.449,35,31z M19.382,28h-3.764l3-6h3.764L19.382,28z    M61,43.699l-0.407,0.194l-4.199-2l-4.198,2l-4.199-2l-4.199,2L43,43.513v-1.785l0.797,0.38l4.199-2l4.199,2l4.198-2l4.199,2   L61,41.914V43.699z M60.379,46.006l-0.731,1.461l-3.305-1.575l-4.198,2l-4.199-2l-3.539,1.685l-0.775-1.549l0.165,0.078l4.199-2   l4.199,2l4.198-2L60.379,46.006z M61,39.699l-0.407,0.194l-4.199-2l-4.198,2l-4.199-2l-4.199,2L43,39.513v-1.785l0.797,0.38   l4.199-2l4.199,2l4.198-2l4.199,2L61,37.914V39.699z M61,35.699l-0.407,0.194l-4.199-2l-4.198,2l-4.199-2l-4.199,2L43,35.513   v-1.785l0.797,0.38l4.199-2l4.199,2l4.198-2l4.199,2L61,33.914V35.699z M52.195,31.893L48.222,30h7.946L52.195,31.893z M44,30   h3.771l-3.974,1.893L43,31.513V31C43,30.449,43.448,30,44,30z M45.342,49.447l-0.04-0.081l2.645-1.259L51.92,50h-5.684   C45.855,50,45.513,49.788,45.342,49.447z M57.764,50h-5.393l3.973-1.892l2.41,1.148l-0.096,0.191   C58.487,49.788,58.145,50,57.764,50z M61,31v0.699l-0.407,0.194L56.619,30H60C60.552,30,61,30.449,61,31z M53,28h-2v-6h2V28z"/><rect height="2" width="2" x="5" y="16"/><rect height="2" width="46" x="9" y="16"/><rect height="2" width="2" x="57" y="16"/></g></svg>