<?xml version="1.0" ?><svg id="Layer_1_1_" style="enable-background:new 0 0 64 64;" version="1.1" viewBox="0 0 64 64" xml:space="preserve" xmlns="http://www.w3.org/2000/svg" xmlns:xlink="http://www.w3.org/1999/xlink"><g><path d="M32,31c-1.654,0-3,1.346-3,3s1.346,3,3,3s3-1.346,3-3S33.654,31,32,31z M32,35c-0.551,0-1-0.449-1-1s0.449-1,1-1   s1,0.449,1,1S32.551,35,32,35z"/><path d="M32,13c-11.58,0-21,9.42-21,21s9.42,21,21,21s21-9.42,21-21S43.58,13,32,13z M47.96,44.271   c-6.59,2.784-9.642-1.415-11.631-4.781c0.433-0.342,0.824-0.734,1.166-1.168c1.824,1.024,4.376,2.283,7.153,2.283   c1.893,0,3.888-0.592,5.825-2.237C49.97,40.496,49.114,42.485,47.96,44.271z M32,39c-2.757,0-5-2.243-5-5s2.243-5,5-5s5,2.243,5,5   S34.757,39,32,39z M26.51,38.329c0.342,0.433,0.734,0.824,1.168,1.166c-1.722,3.067-4.105,8.2-0.049,12.977   c-2.127-0.503-4.115-1.359-5.9-2.512C18.945,43.37,23.144,40.318,26.51,38.329z M16.039,23.729   c6.592-2.781,9.642,1.416,11.631,4.781c-0.433,0.342-0.824,0.734-1.166,1.168c-3.067-1.722-8.2-4.105-12.977-0.049   C14.031,27.502,14.887,25.514,16.039,23.729z M37.49,29.671c-0.342-0.433-0.734-0.824-1.168-1.166   c1.722-3.067,4.105-8.2,0.049-12.977c2.127,0.503,4.115,1.359,5.9,2.512C45.055,24.63,40.856,27.682,37.49,29.671z M50.953,34.919   c-4.314,5.7-9.052,3.592-12.456,1.672c0.202-0.506,0.344-1.04,0.424-1.596c3.521-0.042,9.165-0.546,11.269-6.463   C50.712,30.265,51,32.099,51,34C51,34.31,50.968,34.613,50.953,34.919z M48.876,25.308c-0.882,7.105-6.046,7.648-9.956,7.688   c-0.08-0.555-0.222-1.09-0.426-1.595c3.022-1.794,7.643-5.044,6.531-11.196C46.578,21.672,47.885,23.392,48.876,25.308z    M32.919,15.047c5.699,4.313,3.592,9.052,1.672,12.456c-0.506-0.202-1.04-0.344-1.596-0.424c-0.042-3.521-0.546-9.165-6.463-11.269   C28.265,15.288,30.099,15,32,15C32.31,15,32.612,15.032,32.919,15.047z M23.308,17.124c7.105,0.882,7.648,6.046,7.688,9.956   c-0.555,0.08-1.09,0.222-1.595,0.426c-1.794-3.022-5.043-7.645-11.196-6.531C19.672,19.421,21.393,18.115,23.308,17.124z    M13.047,33.081c4.314-5.7,9.052-3.591,12.456-1.672c-0.202,0.506-0.344,1.04-0.424,1.596c-3.521,0.042-9.165,0.546-11.269,6.463   C13.288,37.735,13,35.901,13,34C13,33.69,13.032,33.387,13.047,33.081z M15.124,42.692c0.882-7.105,6.046-7.648,9.956-7.688   c0.08,0.555,0.222,1.09,0.426,1.595c-3.022,1.794-7.643,5.044-6.531,11.196C17.422,46.328,16.115,44.608,15.124,42.692z    M31.081,52.953c-5.699-4.313-3.592-9.052-1.672-12.456c0.506,0.202,1.04,0.344,1.596,0.424c0.042,3.521,0.546,9.165,6.463,11.269   C35.735,52.712,33.901,53,32,53C31.69,53,31.388,52.968,31.081,52.953z M40.692,50.876c-7.105-0.882-7.648-6.046-7.688-9.956   c0.555-0.08,1.09-0.223,1.596-0.426c1.608,2.709,4.38,6.704,9.37,6.704c0.58,0,1.199-0.073,1.841-0.19   C44.34,48.569,42.614,49.881,40.692,50.876z"/><path d="M63,28h-4V5h-4V1h-8v4H17V1H9v4H5v23H1v8h4v23h4v4h8v-4h30v4h8v-4h4V36h4V28z M57,15h-3c-0.551,0-1-0.449-1-1V7h4V15z    M49,3h4v2h-4V3z M11,3h4v2h-4V3z M51,7v2H7V7H51z M3,34v-4h2v4H3z M15,61h-4v-2h4V61z M53,61h-4v-2h4V61z M7,57V11h44v3   c0,1.654,1.346,3,3,3h3v40H7z M61,34h-2v-4h2V34z"/><rect height="2" width="2" x="53" y="53"/><rect height="2" width="2" x="53" y="49"/><rect height="2" width="2" x="9" y="53"/><rect height="2" width="2" x="9" y="49"/></g></svg>