<?xml version="1.0" ?><!DOCTYPE svg  PUBLIC '-//W3C//DTD SVG 1.1//EN'  'http://www.w3.org/Graphics/SVG/1.1/DTD/svg11.dtd'><svg enable-background="new 0 0 24 24" height="24px" id="Layer_1" version="1.1" viewBox="0 0 24 24" width="24px" xml:space="preserve" xmlns="http://www.w3.org/2000/svg" xmlns:xlink="http://www.w3.org/1999/xlink"><g><path d="M23.5,12c0.3,0,0.5-0.2,0.5-0.5S23.8,11,23.5,11H20V9h3.5C23.8,9,24,8.8,24,8.5S23.8,8,23.5,8H20V6c0-0.6-0.4-1-1-1h-2V1.5   C17,1.2,16.8,1,16.5,1S16,1.2,16,1.5V5h-2V1.5C14,1.2,13.8,1,13.5,1S13,1.2,13,1.5V5h-2V1.5C11,1.2,10.8,1,10.5,1S10,1.2,10,1.5V5   H8V1.5C8,1.2,7.8,1,7.5,1S7,1.2,7,1.5V5H5C4.4,5,4,5.4,4,6v2H0.5C0.2,8,0,8.2,0,8.5S0.2,9,0.5,9H4v2H0.5C0.2,11,0,11.2,0,11.5   S0.2,12,0.5,12H4v2H0.5C0.2,14,0,14.2,0,14.5S0.2,15,0.5,15H4v2H0.5C0.2,17,0,17.2,0,17.5S0.2,18,0.5,18H4v2c0,0.6,0.4,1,1,1h2v3.5   C7,24.8,7.2,25,7.5,25S8,24.8,8,24.5V21h2v3.5c0,0.3,0.2,0.5,0.5,0.5s0.5-0.2,0.5-0.5V21h2v3.5c0,0.3,0.2,0.5,0.5,0.5   s0.5-0.2,0.5-0.5V21h2v3.5c0,0.3,0.2,0.5,0.5,0.5s0.5-0.2,0.5-0.5V21h2c0.6,0,1-0.4,1-1v-2h3.5c0.3,0,0.5-0.2,0.5-0.5   S23.8,17,23.5,17H20v-2h3.5c0.3,0,0.5-0.2,0.5-0.5S23.8,14,23.5,14H20v-2H23.5z M18,19H6V7h12V19z"/><path d="M17,8h-4v4h4V8z M16,11h-2V9h2V11z"/><path d="M11,8H7v4h4V8z M10,11H8V9h2V11z"/><path d="M17,14h-4v4h4V14z M16,17h-2v-2h2V17z"/><path d="M11,14H7v4h4V14z M10,17H8v-2h2V17z"/></g></svg>