<?xml version="1.0" ?><!DOCTYPE svg  PUBLIC '-//W3C//DTD SVG 1.1//EN'  'http://www.w3.org/Graphics/SVG/1.1/DTD/svg11.dtd'><svg height="512px" style="enable-background:new 0 0 512 512;" version="1.1" viewBox="0 0 512 512" width="512px" xml:space="preserve" xmlns="http://www.w3.org/2000/svg" xmlns:xlink="http://www.w3.org/1999/xlink"><g id="_x35_89_x2C__Engine_x2C__industry_x2C__machine_x2C__motor_x2C__performance"><g><path d="M468.755,249.326l17.244,0.029v-52.404h-17.244v35.721v0.084V249.326z     M41.647,249.467v12.084h28.627v-12.084H41.647z M34.749,265.084V265v-18.982v-0.084v-16.459h-8.748v52.068h8.748V265.084z     M441.502,217.055v12.197h20.354v-12.197H441.502z M397.564,177.885l0.168,97.405h36.871v-56.918v-4.767v-0.168v-42.449h-37.039    V177.885z M274.616,261.159l-39.533,10.599h-0.084l-0.084,0.027l-0.056,0.029h-0.028l-0.056,0.027h-0.028h-0.056h-0.028    l-0.056,0.028h-0.028h-0.056h-0.028l-0.056,0.028h-0.028h-0.056h-0.028h-0.056h-0.028h-0.056h-0.028h-0.056h-0.028h-0.055h-0.028    h-0.056h-0.028h-0.056h-0.028h-0.056h-0.028h-0.056h-0.028l-0.056-0.028h-0.028h-0.056h-0.028l-0.084-0.028l0,0h-0.084l0,0    l-0.084-0.027l0,0l-0.084-0.029l-0.084-0.027h-0.084l-39.505-10.599c-0.421,2.383-0.646,4.823-0.646,7.317    c0,11.355,4.599,21.674,12.057,29.132c7.458,7.459,17.776,12.085,29.161,12.085c11.383,0,21.701-4.626,29.13-12.057    c7.485-7.486,12.085-17.776,12.085-29.16C275.262,265.982,275.037,263.542,274.616,261.159z M299.123,254.598l-17.834,4.768    c0.562,2.943,0.87,6,0.87,9.111c0,13.264-5.383,25.291-14.104,33.982c-8.719,8.748-20.748,14.132-34.008,14.132    c-13.262,0-25.292-5.412-34.011-14.103c-8.721-8.693-14.104-20.748-14.104-34.012c0-3.111,0.281-6.168,0.87-9.111l-17.833-4.768    c-0.953,4.458-1.458,9.113-1.458,13.879c0,18.365,7.459,34.992,19.488,47.021c12.027,12.056,28.655,19.486,47.048,19.486    c18.363,0,34.991-7.459,47.048-19.486c12.026-12.029,19.458-28.656,19.458-47.021    C300.553,263.711,300.075,259.056,299.123,254.598z M304.001,246.158l39.254-10.514c1.823-0.477,3.7,0.588,4.206,2.438    c0.476,1.823-0.617,3.729-2.439,4.206l-39.226,10.515c1.094,5.047,1.653,10.29,1.653,15.673c0,20.244-8.214,38.609-21.505,51.898    c-13.262,13.291-31.627,21.506-51.898,21.506c-20.272,0-38.61-8.215-51.9-21.506c-13.318-13.316-21.532-31.654-21.532-51.898    c0-5.383,0.587-10.626,1.681-15.673l-39.226-10.515c-1.85-0.477-2.915-2.383-2.439-4.206c0.477-1.851,2.383-2.915,4.206-2.438    l39.254,10.514c3.588-11.299,9.842-21.393,18.028-29.58c13.318-13.318,31.684-21.533,51.928-21.533    c20.271,0,38.636,8.215,51.898,21.505l0.225,0.225C294.243,224.934,300.44,234.971,304.001,246.158z M279.524,252.72l17.831-4.767    c-3.251-10.065-8.831-19.039-16.095-26.355l-0.166-0.169c-12.058-12.028-28.685-19.486-47.048-19.486    c-18.394,0-35.021,7.43-47.048,19.458c-7.347,7.375-12.983,16.431-16.263,26.553l17.832,4.767    c2.411-6.925,6.364-13.179,11.441-18.253c8.747-8.721,20.776-14.104,34.039-14.104c13.289,0,25.317,5.383,34.008,14.075    l0.196,0.225C273.244,239.71,277.141,245.878,279.524,252.72z M234.046,264.916l38.776-10.402    c-2.048-5.691-5.299-10.822-9.449-15.028l-0.196-0.169c-7.458-7.457-17.748-12.056-29.13-12.056    c-11.385,0-21.703,4.599-29.161,12.056c-4.234,4.234-7.57,9.422-9.646,15.197L234.046,264.916z M355.956,139.949    c-0.196,0.027-0.392,0.027-0.616,0.027h-25.797l-158.808,0.337l-49.375,52.039c-0.618,0.646-1.486,1.038-2.439,1.065    l-41.749,0.674v51.842v0.084V265v0.084v67.74l43.346,9.59c0.618,0.111,1.262,0.42,1.739,0.896l55.993,53.75h131.276l81.395-98.246    l-0.029-18.842c-0.139-0.393-0.223-0.813-0.223-1.234V167.539v-0.309l-0.027-27.365L355.956,139.949z M345.47,133.107l6.421-0.027    V96.293H316.17h-0.084h-65.414h-0.084h-35.75v36.814H345.47z M254.121,89.396h58.516V67.947h-58.516V89.396z M260.71,118.164    c1.317,0,2.663-0.87,3.112-1.963c1.149-2.3-0.617-4.936-3.112-4.936h-6.87c-1.318,0-2.664,0.842-3.111,1.935    c-1.149,2.3,0.616,4.964,3.111,4.964H260.71z M288.271,118.164c1.29,0,2.664-0.87,3.085-1.963c1.149-2.3-0.59-4.936-3.085-4.936    h-6.898c-1.289,0-2.663,0.842-3.083,1.935c-1.149,2.3,0.588,4.964,3.083,4.964H288.271z M315.834,118.164    c1.289,0,2.663-0.87,3.084-1.963c1.15-2.3-0.59-4.936-3.084-4.936h-6.898c-1.289,0-2.664,0.842-3.083,1.935    c-1.151,2.3,0.588,4.964,3.083,4.964H315.834z M340.479,118.164c1.29,0,2.664-0.87,3.086-1.963c1.148-2.3-0.59-4.936-3.086-4.936    h-3.98c-1.291,0-2.664,0.842-3.086,1.935c-1.148,2.3,0.59,4.964,3.086,4.964H340.479z M56.143,427.23    c-1.907,0-3.45-1.543-3.45-3.449s1.542-3.449,3.45-3.449h276.373c1.908,0,3.45,1.543,3.45,3.449s-1.542,3.449-3.45,3.449H56.143z     M217.98,444.053c-1.908,0-3.45-1.542-3.45-3.448c0-1.907,1.542-3.448,3.45-3.448h191.249c1.907,0,3.449,1.541,3.449,3.448    c0,1.906-1.542,3.448-3.449,3.448H217.98z M428.799,444.053c-1.905,0-3.448-1.542-3.448-3.448c0-1.907,1.543-3.448,3.448-3.448    h23.918c1.907,0,3.449,1.541,3.449,3.448c0,1.906-1.542,3.448-3.449,3.448H428.799z M45.263,443.549    c-1.907,0-3.448-1.543-3.448-3.449s1.541-3.449,3.448-3.449h90.621c1.906,0,3.448,1.543,3.448,3.449s-1.542,3.449-3.448,3.449    H45.263z M226.278,111.266c-1.317,0-2.664,0.842-3.111,1.935c-1.149,2.3,0.616,4.964,3.111,4.964h6.87    c1.318,0,2.664-0.87,3.113-1.963c1.149-2.3-0.618-4.936-3.113-4.936H226.278z" style="fill-rule:evenodd;clip-rule:evenodd;"/></g></g><g id="Layer_1"/></svg>