<svg data-v-52771866="" xmlns="http://www.w3.org/2000/svg" viewBox="0 0 28 35" class=""><path d="M28,29.224c0.068,3.12-2.406,5.706-5.526,5.776H5.526C2.406,34.93-0.068,32.344,0,29.224&#10;&#9;c-0.003-1.169,0.339-2.314,0.984-3.289c0.123-0.294,0.299-0.563,0.519-0.793l6.858-7.2v-6.3h-1.2c-0.828,0-1.5-0.672-1.5-1.5&#10;&#9;s0.672-1.5,1.5-1.5h13.672c0.828,0,1.5,0.672,1.5,1.5s-0.672,1.5-1.5,1.5h-1.187v6.289l6.881,7.193&#10;&#9;c0.268,0.278,0.471,0.613,0.591,0.98C27.696,27.042,28.001,28.122,28,29.224z M5.567,32.09h16.866&#10;&#9;c1.571-0.036,2.817-1.337,2.783-2.909c0.003-0.719-0.256-1.416-0.727-1.959l-0.182-0.19c-0.089-0.085-0.184-0.165-0.283-0.238&#10;&#9;l-0.9-0.981c-1.06,0.241-2.143,0.366-3.23,0.373c-2.634-0.143-3.609-1.476-6.141-1.369c-1.936,0.081-2.815,0.944-4.748,1.2&#10;&#9;c-1.358,0.221-2.749,0.141-4.073-0.233l-1.41,1.481c-0.059,0.061-0.119,0.117-0.181,0.171c-0.365,0.509-0.56,1.121-0.558,1.747&#10;&#9;C2.75,30.754,3.996,32.055,5.567,32.09z M17.556,19.976c-0.208-0.217-0.377-0.468-0.5-0.742c-0.179-0.258-0.275-0.564-0.274-0.878&#10;&#9;v-6.718h-5.568v6.738c0.001,0.315-0.096,0.622-0.276,0.88c-0.121,0.271-0.289,0.52-0.494,0.735l-3.013,3.165&#10;&#9;c1.732,0.429,4.5-1.478,6.813-1.334c2.115,0.131,3.217,1.181,5.485,1.369c0.323,0.026,0.644,0.045,0.95,0.051L17.556,19.976z&#10;&#9; M16.825,5.733c-1.583,0.07-2.923-1.156-2.993-2.739s1.156-2.923,2.739-2.993s2.923,1.156,2.993,2.739&#10;&#9;c0.002,0.042,0.003,0.085,0.003,0.127C19.601,4.415,18.373,5.698,16.825,5.733L16.825,5.733z M10.52,7.274&#10;&#9;C9.315,7.327,8.295,6.393,8.242,5.188C8.189,3.983,9.123,2.963,10.328,2.91c1.205-0.053,2.225,0.881,2.278,2.086&#10;&#9;c0.001,0.032,0.002,0.064,0.002,0.096C12.634,6.271,11.699,7.248,10.52,7.274L10.52,7.274z"/></svg>