<?xml version="1.0" ?><svg id="Layer_1_1_" style="enable-background:new 0 0 64 64;" version="1.1" viewBox="0 0 64 64" xml:space="preserve" xmlns="http://www.w3.org/2000/svg" xmlns:xlink="http://www.w3.org/1999/xlink"><path d="M58,15c0-1.105-0.895-2-2-2H43v-1h4.5L46,9h-5V8h4.5L44,5h-5V4h4.5l-0.947-1.894C42.214,1.428,41.521,1,40.764,1H30  c-0.53,0-1.039,0.211-1.414,0.586L25,4h-4v13h4l4,4h8c0.63,0,1.222-0.296,1.6-0.8L41,17h9.5v-2h1v2H56C57.105,17,58,16.105,58,15z"/><path d="M48.201,30.786C47.437,32.825,48.944,35,51.121,35s3.684-2.175,2.92-4.214L51.121,23L48.201,30.786z"/><path d="M55.864,45.95c-0.328-0.622-0.815-1.146-1.412-1.519l-3.746-3.365c-0.794-0.496-1.87-0.461-2.52,0.213  c-0.801,0.831-0.702,2.124,0.145,2.83L51,48h-3l1,3l1,1l2,2l-3-1l-1-1l-2-4H32.5c-0.828,0-1.5,0.672-1.5,1.5s0.672,1.5,1.5,1.5H43v1  H30.5c-0.828,0-1.5,0.672-1.5,1.5s0.672,1.5,1.5,1.5H43v1H32.5c-0.828,0-1.5,0.672-1.5,1.5s0.672,1.5,1.5,1.5H44v1h-6.5  c-0.828,0-1.5,0.672-1.5,1.5s0.672,1.5,1.5,1.5h16.167c0.216,0,0.427-0.07,0.6-0.2L58,60h5V49h-5L55.864,45.95z"/><circle cx="8.5" cy="12" r="1"/><circle cx="11.5" cy="10" r="1"/><path d="M10,20c4.971,0,9-4.029,9-9c0-4.971-4.029-9-9-9s-9,4.029-9,9C1,15.971,5.029,20,10,20z M4,10h1.101  c0.13-0.637,0.384-1.229,0.732-1.753L5.05,7.464c-0.391-0.391-0.391-1.024,0-1.414c0.39-0.39,1.023-0.391,1.414,0l0.783,0.783  C7.772,6.485,8.363,6.231,9,6.101V5c0-0.552,0.448-1,1-1h0c0.552,0,1,0.448,1,1v1.101c0.637,0.13,1.228,0.384,1.753,0.732  l0.783-0.783c0.391-0.39,1.023-0.39,1.414,0c0.391,0.391,0.391,1.024,0,1.414l-0.783,0.783c0.348,0.524,0.602,1.116,0.732,1.753H16  c0.552,0,1,0.448,1,1v0c0,0.552-0.448,1-1,1h-1.101c-0.13,0.637-0.384,1.229-0.732,1.753l0.783,0.783  c0.391,0.39,0.391,1.024,0,1.414c-0.39,0.39-1.023,0.391-1.414,0l-0.783-0.783c-0.524,0.348-1.116,0.602-1.753,0.732V17  c0,0.552-0.448,1-1,1h0c-0.552,0-1-0.448-1-1v-1.101c-0.637-0.13-1.228-0.384-1.753-0.732L6.464,15.95  c-0.391,0.39-1.023,0.39-1.414,0c-0.391-0.391-0.391-1.024,0-1.414l0.783-0.783C5.485,13.229,5.231,12.637,5.101,12H4  c-0.552,0-1-0.448-1-1v0C3,10.448,3.448,10,4,10z"/></svg>