<svg data-v-52771866="" xmlns="http://www.w3.org/2000/svg" viewBox="0 0 36 36" class=""><path d="M18,36C8.059,36,0,27.941,0,18S8.059,0,18,0s18,8.059,18,18S27.941,36,18,36z M29.921,7.709l-0.038,0.025&#10;&#9;l-1.617,1.547l-1.547-1.617l1.612-1.55c-2.589-2.258-5.848-3.603-9.276-3.828V4.5h-2.25V2.3c-3.397,0.254-6.619,1.607-9.179,3.855&#10;&#9;l1.515,1.514L7.523,9.216L6.052,7.744c-2.206,2.56-3.525,5.765-3.762,9.136h2.069v2.25H2.29c0.239,3.405,1.583,6.639,3.827,9.211&#10;&#9;l1.477-1.477l1.547,1.547l-1.442,1.507c2.548,2.211,5.742,3.54,9.106,3.792v-2.14h2.25v2.145c3.413-0.225,6.659-1.559,9.243-3.8&#10;&#9;l-1.579-1.579l1.547-1.547l1.584,1.584c2.263-2.578,3.619-5.826,3.859-9.248H31.43v-2.25h2.28&#10;&#9;C33.472,13.49,32.143,10.274,29.921,7.709L29.921,7.709z M18,29.953c-6.601,0-11.953-5.352-11.953-11.953S11.399,6.047,18,6.047&#10;&#9;S29.953,11.399,29.953,18S24.601,29.953,18,29.953L18,29.953z M18,8.297c-5.357,0-9.7,4.343-9.7,9.7c0,5.357,4.343,9.7,9.7,9.7&#10;&#9;c5.357,0,9.7-4.343,9.7-9.7C27.698,12.641,23.356,8.3,18,8.3V8.297z"/></svg>